<svg width="645" height="615" viewBox="0 0 645 615" fill="none" xmlns="http://www.w3.org/2000/svg">
<path style="mix-blend-mode:screen" d="M458.668 485.462C561.083 414.192 582.959 276.628 507.53 178.204C432.101 79.7792 287.931 57.7665 185.517 129.037C83.1031 200.307 61.2271 337.871 136.656 436.295C212.084 534.72 356.254 556.733 458.668 485.462Z" fill="url(#paint0_radial_2_1453)"/>
<path style="mix-blend-mode:screen" d="M442.774 450.479C530.145 389.678 548.809 272.321 484.461 188.356C420.113 104.39 297.12 85.612 209.749 146.414C122.379 207.215 103.715 324.572 168.063 408.537C232.411 492.503 355.403 511.281 442.774 450.479Z" fill="url(#paint1_radial_2_1453)"/>
<path opacity="0.44" fill-rule="evenodd" clip-rule="evenodd" d="M143.717 276.503C143.426 278.249 143.176 280.015 142.947 281.741C140.659 298.836 141.052 316.16 144.113 333.145C150.47 368.321 167.947 400.809 194.206 426.263C220.464 451.718 254.253 468.925 291.053 475.585C327.853 482.244 365.909 478.037 400.132 463.527C434.354 449.018 463.112 424.896 482.559 394.39C484.488 391.361 486.334 388.26 488.097 385.085C500.99 361.677 508.162 335.795 509.078 309.373C509.993 282.951 504.628 256.674 493.383 232.507C482.138 208.339 465.304 186.908 444.141 169.814C422.979 152.721 398.034 140.408 371.173 133.797C366.676 132.686 362.137 131.813 357.495 131C356.245 130.762 354.975 130.583 353.726 130.385C340.391 128.397 326.867 127.811 313.398 128.639C305.205 129.108 297.058 130.136 289.018 131.714C252.178 138.816 218.506 156.505 192.538 182.4C166.57 208.295 149.553 241.151 143.78 276.543L143.717 276.503Z" fill="url(#paint2_radial_2_1453)"/>
<g style="mix-blend-mode:multiply" opacity="0.3">
<path fill-rule="evenodd" clip-rule="evenodd" d="M187.023 188.058L188.209 187.483C190.565 186.294 193.041 185.337 195.6 184.626C197.682 184.09 199.91 184.249 201.846 183.892C205.339 183.162 208.734 182.058 211.965 180.598C215.921 178.912 219.96 178.297 223.936 176.63C234.346 172.444 241.425 163.1 249.024 155.581C250.691 154.053 252.242 152.416 253.667 150.68C254.734 149.454 256.016 148.414 257.456 147.605C260.499 145.248 264.242 143.86 268.157 143.637C270.531 143.637 272.321 145.244 274.403 146.435C277.193 148.042 278.192 148.637 276.048 150.958C272.342 154.926 267.054 158.894 270.718 164.846C272.836 168.65 275.229 172.31 277.88 175.797C281.066 179.567 283.564 184.923 288.623 186.907C292.371 188.356 296.555 186.173 300.324 185.419C303.647 184.445 307.092 183.898 310.567 183.793C313.093 184.219 315.554 184.938 317.896 185.935C321.831 187.086 326.39 187.046 328.847 183.674C329.805 182.404 329.409 181.928 331.054 181.134C332.831 180.53 334.705 180.228 336.592 180.241C341.547 179.944 346.585 181.114 351.478 180.717C354.817 180.292 358.127 179.676 361.388 178.872C363.558 178.749 365.716 178.47 367.842 178.039C368.904 177.622 370.091 176.73 371.215 176.234C374.018 174.698 377.32 174.21 380.48 174.865C388.648 176.356 396.403 179.443 403.257 183.931C407.212 186.709 406.838 189.01 404.797 192.681C403.069 195.835 399.301 199.585 399.593 203.275C399.801 206.39 401.903 209.227 402.528 212.183C403.153 215.139 403.756 217.917 401.966 220.575C398.968 225.079 393.638 228.094 390.203 232.181C386.289 236.804 383.228 245.137 388.308 249.759C390.545 252.107 392.291 254.841 393.451 257.814C394.45 259.798 395.283 262.814 398.198 262.615C400.134 262.476 402.049 260.373 403.944 260.096C404.949 260.001 405.964 260.131 406.907 260.475C407.85 260.82 408.696 261.369 409.378 262.08C411.793 264.064 415.186 266.167 416.956 268.726C420.204 273.428 418.518 281.999 415.374 286.343C411.585 291.581 408.129 297.057 401.425 299.021C397.261 300.271 392.264 299.576 389.266 303.366C387.434 305.727 387.455 308.306 386.393 310.885C385.114 313.286 384.001 315.765 383.062 318.305C382.404 320.847 381.498 323.324 380.355 325.705C378.858 329.197 377.133 332.596 375.192 335.883C372.756 339.593 368.946 341.954 365.885 345.009C363.075 347.687 359.952 348.779 356.87 351.12C353.789 353.461 349.396 355.524 346.898 358.936C345.003 361.496 343.421 364.273 341.38 366.872C335.634 373.757 328.347 367.567 323.288 363.123C319.742 360.328 316.599 357.099 313.94 353.52C312.04 350.435 309.822 347.537 307.319 344.87C304.791 342.262 302.07 339.829 299.179 337.589C297.9 336.914 296.764 336.019 295.827 334.95C294.579 332.93 294.143 330.548 294.598 328.245C295.306 323.146 295.369 316.341 297.43 311.679C299.637 306.461 305.862 307.929 310.338 308.504C312.899 308.822 316.189 308.901 317.812 306.798C319.436 304.695 319.291 302.413 321.144 300.429C322.024 299.425 323.227 298.726 324.567 298.439C325.907 298.152 327.309 298.294 328.555 298.842C329.784 299.279 330.637 300.033 331.887 300.41C333.136 300.787 334.343 300.291 335.218 301.461C337.092 303.901 332.969 306.242 331.324 307.73C328.368 310.369 328.014 311.024 329.242 314.694C329.95 316.797 331.324 320.15 334.156 319.495C336.238 319.019 338.32 315.23 339.715 313.98C345.961 308.643 352.207 303.267 347.647 294.676C346.231 291.978 344.503 291.938 342.463 290.073C340.423 288.208 339.798 284.895 337.466 282.951C334.406 280.431 329.013 280.689 325.141 280.074C320.321 279.365 315.439 279.112 310.567 279.32C307.665 279.535 304.836 280.29 302.239 281.542C299.345 282.633 296.535 281.106 293.557 281.304C288.082 281.681 285.23 285.034 281.066 288.089C276.902 291.145 276.006 294.16 274.008 298.584C269.806 307.592 266.765 317.052 264.951 326.757C263.639 335.129 262.869 343.839 259.684 351.675C258.136 355.352 256.263 358.896 254.083 362.27C253.375 363.361 252.98 362.904 253.021 364.531C253.334 366.206 253.859 367.838 254.583 369.392C255.832 371.792 258.976 374.074 260.829 376.256C262.655 378.208 264.654 380.007 266.804 381.633C269.74 384.252 272.717 386.553 275.694 389.053C280.545 393.021 279.317 399.905 283.335 404.786C289.019 411.69 296.555 413.952 304.384 418.118C310.723 421.119 316.869 424.478 322.788 428.177C326.39 430.657 329.034 433.613 332.928 435.815C337.994 438.256 343.208 440.409 348.542 442.263C352.643 444.029 357.044 445.078 361.534 445.358C364.306 445.159 367.09 445.159 369.862 445.358C375.275 446.171 380.751 447.064 386.226 447.798C389.106 447.86 391.977 447.465 394.721 446.627C397.635 446.072 400.571 445.258 403.507 444.643C411.21 443.096 421.745 443.334 427.678 437.779C429.406 436.172 430.781 434.128 432.634 432.601C434.271 431.575 435.99 430.673 437.776 429.903C439.108 429.083 440.5 428.353 441.94 427.72C444.097 426.754 446.085 425.476 447.832 423.931C449.577 422.688 451.507 421.698 453.557 420.995C454.874 420.739 456.153 420.333 457.367 419.784C458.471 418.931 458.013 418.336 458.429 417.106C458.845 415.876 459.741 414.725 460.303 413.416C461.757 409.377 464.824 406.047 468.839 404.151C470.874 403.651 472.839 402.918 474.689 401.968C478.135 400.224 480.869 397.43 482.455 394.033V394.37C459.692 429.972 424.379 456.696 382.833 469.76C381.625 469.046 380.459 468.332 379.356 467.598C376.075 465.659 372.341 464.527 368.488 464.304C363.227 463.526 358.055 462.277 353.04 460.575C348.572 459.205 343.978 458.242 339.319 457.698C333.427 456.884 327.931 454.782 321.976 453.948C316.423 453.551 310.842 453.697 305.321 454.385C297.243 454.881 289.269 451.548 281.794 448.889C278.421 447.699 275.548 445.358 272.03 444.346C269.948 443.731 267.866 443.552 265.784 442.779C260.276 440.891 254.498 439.814 248.649 439.584C244.985 439.584 243.09 441.985 240.155 443.275C237.219 444.564 233.513 442.66 230.369 442.54C228.515 442.629 226.714 443.161 225.131 444.087C223.548 445.012 222.235 446.302 221.313 447.838C201.072 434.566 183.818 417.575 170.561 397.863C157.304 378.151 148.312 356.114 144.113 333.046C149.152 333.82 156.085 338.859 159.041 338.998C160.831 339.117 162.497 338.383 164.433 338.66C166.096 339.037 167.709 339.589 169.243 340.307C171.762 341.18 174.947 342.291 176.759 340.069C178.57 337.847 176.759 333.046 180.735 333.046C182.692 333.046 184.254 334.732 186.481 334.673C188.231 334.527 189.992 334.58 191.728 334.831C194.672 335.438 197.562 336.268 200.368 337.311C201.741 337.59 203.16 337.59 204.532 337.311C206.056 337.44 207.589 337.44 209.112 337.311C212.86 336.081 210.382 332.232 209.321 330.05C208.626 328.859 208.014 327.627 207.489 326.36C207.257 325.236 207.222 324.083 207.384 322.947C207.017 319.495 205.406 316.27 202.825 313.821C199.147 310.036 196.049 305.775 193.623 301.164C192.491 299.481 191.778 297.574 191.541 295.589C191.541 293.922 191.416 292.256 191.312 290.569C191.194 288.645 190.908 286.734 190.458 284.855C189.917 282.197 190.333 279.538 189.896 276.92C189.5 274.658 187.71 269.877 185.732 268.329C184.816 267.635 183.546 267.595 182.651 266.702C181.755 265.809 181.755 264.718 180.569 264.163C177.966 262.675 172.386 264.163 169.68 264.698C165.372 265.604 161.292 267.302 157.667 269.698C154.339 272.187 151.258 274.963 148.465 277.991C146.852 279.593 144.881 280.828 142.697 281.602C142.926 279.876 143.176 278.11 143.468 276.364C148.862 243.576 163.973 212.938 187.023 188.058ZM267.595 282.256C267.824 283.486 270.198 284.498 271.364 284.478C273.737 284.478 275.965 282.217 277.943 281.086C280.063 279.976 281.641 278.116 282.336 275.908L280.441 276.781C282.523 274.797 285.563 273.011 284.001 269.738C283.624 268.959 282.944 268.351 282.105 268.04C281.267 267.729 280.334 267.74 279.504 268.071C276.276 268.648 273.232 269.931 270.614 271.821C269.253 273.333 268.513 275.264 268.532 277.257C267.996 278.878 267.681 280.559 267.595 282.256ZM245.297 178.515C246.2 180.55 247.79 182.24 249.815 183.316C251.608 184.249 253.538 184.918 255.541 185.3C259.455 185.915 263.556 183.495 266.742 181.749C268.595 180.777 272.758 177.781 267.366 178.495C268.274 177.385 268.894 176.087 269.178 174.706C269.202 173.644 269.132 172.582 268.969 171.532C268.782 169.191 267.678 167.147 267.325 164.885C266.984 163.039 266.852 161.164 266.929 159.291C267.054 157.703 267.783 156.394 266.45 155.065C266.147 154.703 265.722 154.454 265.246 154.36C264.771 154.265 264.276 154.332 263.848 154.549C262.765 154.966 261.766 156.394 260.745 157.128C259.725 157.862 258.664 158.795 257.706 159.687C254.749 162.207 252.938 165.739 250.232 168.476C248.673 169.773 247.325 171.285 246.234 172.96C245.696 173.779 245.336 174.693 245.175 175.647C245.014 176.601 245.055 177.577 245.297 178.515ZM161.893 253.906C163.267 257.259 167.952 258.866 171.283 259.858C176.196 261.246 182.442 260.711 187.543 260.234C189.515 260.135 191.435 259.591 193.144 258.647C195.101 257.616 197.537 257.239 194.435 257.159C195.738 254.667 196.885 252.103 197.87 249.481C199.119 246.208 201.201 243.153 202.783 239.978C205.407 234.721 208.634 228.412 207.988 222.4C207.551 218.432 205.136 213.929 201.326 212.223C198.474 210.96 195.305 210.492 192.186 210.874C188.579 211.628 185.162 213.05 182.13 215.06C178.957 216.8 176.372 219.368 174.677 222.46C173.552 224.702 172.928 227.142 171.637 229.285C170.991 230.376 170.367 231.269 169.784 232.519C168.978 233.839 167.951 235.025 166.744 236.03C165.008 237.386 163.744 239.212 163.122 241.268C162.664 243.45 162.435 245.652 162.081 247.835C161.42 249.828 161.355 251.958 161.893 253.985V253.906Z" fill="#9A86D6"/>
</g>
<g style="mix-blend-mode:multiply" opacity="0.3">
<path fill-rule="evenodd" clip-rule="evenodd" d="M422.411 266.702C422.91 268.349 423.722 272.178 425.471 273.309C427.22 274.44 430.364 272.734 432.175 272.139C433.628 271.509 435.132 270.991 436.672 270.591C437.985 270.549 439.293 270.417 440.586 270.194C441.787 269.904 442.932 269.436 443.98 268.805C444.719 268.048 445.305 267.167 445.708 266.206C446.855 263.733 447.822 261.188 448.602 258.588C449.119 257.138 449.212 255.581 448.873 254.085C448.602 251.922 448.498 249.74 448.144 247.577C447.791 244.406 447.058 241.284 445.958 238.272C444.864 235.828 442.944 233.803 440.503 232.519C439.441 231.884 438.234 231.586 437.193 230.932C435.958 230.064 434.624 229.332 433.216 228.749C432.393 228.433 431.521 228.252 430.634 228.214C429.705 228.299 428.804 228.57 427.99 229.007C426.778 229.25 425.657 229.798 424.742 230.594C423.887 231.37 423.183 232.284 422.66 233.293C421.64 235.277 420.162 237.261 419.288 239.463C418.078 242.068 417.765 244.971 418.392 247.756C418.933 250.425 419.232 253.133 419.288 255.85C419.241 258.434 419.671 261.006 420.558 263.449C421.39 265.016 422.411 266.147 422.411 266.702Z" fill="#9A86D6"/>
</g>
<path style="mix-blend-mode:multiply" opacity="0.3" fill-rule="evenodd" clip-rule="evenodd" d="M435.964 281.741C436.715 282.594 437.173 283.647 437.276 284.756C435.673 285.292 435.34 287.931 433.299 288.07C432.488 286.8 430.093 285.173 431.613 283.487C431.821 283.248 432.529 283.189 432.8 282.991C433.07 282.792 433.404 282.157 433.862 282.018C435.331 282.01 436.793 282.225 438.192 282.653L435.964 281.741Z" fill="url(#paint3_linear_2_1453)"/>
<g style="mix-blend-mode:multiply" opacity="0.3">
<path fill-rule="evenodd" clip-rule="evenodd" d="M396.011 289.974C395.252 291.151 394.237 292.159 393.034 292.93C391.91 293.624 390.577 294.259 389.411 294.914C387.083 295.993 384.861 297.268 382.77 298.723C380.979 300.251 381.25 301.838 380.688 303.782C380.355 304.953 379.793 306.123 379.355 307.274C379.048 307.916 378.79 308.58 378.585 309.258C378.501 310.065 378.334 310.863 378.085 311.639C377.378 313.206 376.003 314.277 375.275 315.865C374.922 317.164 374.292 318.38 373.422 319.436C372.56 320.02 371.613 320.481 370.611 320.805C369.455 321.459 368.41 322.275 367.509 323.225C364.24 326.34 363.241 330.665 360.326 333.919C357.411 337.172 351.998 335.149 348.625 335.268C348.063 335.268 347.501 335.645 346.918 335.506C346.335 335.367 345.732 334.772 345.19 334.474C344.243 333.916 343.137 333.653 342.026 333.72C341.318 333.72 341.651 334.256 340.693 333.899C340.11 333.681 339.527 332.57 339.298 332.074C339.006 331.347 338.895 330.565 338.975 329.79C339.054 329.015 339.322 328.269 339.756 327.61C340.527 326.042 341.234 324.435 342.005 322.868C342.856 321.501 343.614 320.082 344.274 318.622C344.774 317.115 344.711 315.547 345.232 314.039C346.523 310.389 349.042 308.901 352.29 306.719C355.538 304.536 359.577 303.346 359.993 299.437C360.16 297.85 359.473 297.692 358.827 296.481C358.383 295 357.724 293.584 356.87 292.275C356.056 291.694 355.184 291.189 354.268 290.768C352.981 290.198 351.742 289.534 350.562 288.784C349.271 287.891 349.458 286.8 348.709 285.748C348.23 285.034 348.167 285.411 347.501 284.935C346.821 284.485 346.264 283.886 345.877 283.189C344.897 281.902 344.151 280.466 343.67 278.943C343.401 277.629 342.856 276.381 342.067 275.273C341.003 273.877 339.842 272.551 338.59 271.305C337.266 270.01 335.65 269.019 333.864 268.408C332.974 268.212 332.069 268.086 331.158 268.031C328.578 267.317 326.173 266.123 324.079 264.52C320.81 262.536 316.147 257.794 312.17 260.929C310.983 261.861 310.713 263.429 309.297 264.183C306.299 265.809 303.238 263.726 300.698 262.199C296.598 259.557 293.006 256.262 290.08 252.457C288.102 250.096 286.437 248.073 286.791 244.898C287.478 238.768 293.349 235.435 295.119 229.761C296.888 224.087 295.119 217.857 295.244 212.262C295.129 209.14 296.184 206.081 298.221 203.632C299.08 202.841 300.055 202.173 301.115 201.648C303.426 200.497 304.8 201.37 306.882 201.37C308.106 201.311 309.275 200.872 310.213 200.121C313.315 198.335 318.291 200.279 321.56 200.716C326.471 201.622 331.54 201.363 336.321 199.962C341.759 198.1 347.071 195.92 352.227 193.435C355.981 191.459 359.886 189.755 363.907 188.336C366.813 187.567 369.858 187.398 372.839 187.84C374.836 187.932 376.778 188.491 378.495 189.466C380.213 190.442 381.652 191.805 382.687 193.435C384.769 196.748 383.145 198.176 381.521 201.251C381 202.243 379.689 204.247 380.188 205.457C380.959 207.263 384.352 207.302 385.997 207.441C387.642 207.58 390.765 207.441 391.306 209.425C391.334 211.275 391.053 213.116 390.473 214.881C390.244 216.21 390.473 217.798 389.266 218.671C388.058 219.543 387.184 219.246 386.268 219.583C384.498 220.158 383.873 221.567 382.687 222.777C381.694 223.554 380.611 224.22 379.46 224.761C378.195 225.823 376.796 226.729 375.296 227.459C372.693 228.293 370.403 227.321 367.925 229.007C367.157 229.691 366.304 230.284 365.385 230.773C364.572 231.006 363.734 231.152 362.887 231.209C360.909 231.586 357.932 232.3 357.328 234.483C356.724 236.665 359.618 238.629 361.367 239.383C363.116 240.137 365.531 240.514 365.698 242.419C365.864 244.323 364.657 245.295 365.469 246.922C368.03 252.041 375.212 249.323 379.751 250.116C386.58 251.307 389.349 257.338 392.055 262.655C392.326 263.171 392.826 263.567 393.076 264.063C393.513 264.936 393.076 265.373 393.388 266.226C393.847 267.347 394.711 268.276 395.824 268.845C396.929 269.74 398.242 270.373 399.655 270.69C401.404 271.007 403.361 270.988 405.068 271.464C408.482 272.436 409.107 276.364 407.712 279.241C406.796 281.066 404.131 282.157 402.861 283.784C401.945 285.143 400.9 286.418 399.738 287.593C398.936 288.159 398.102 288.682 397.24 289.161C396.178 289.974 395.595 291.224 396.011 289.974Z" fill="#9A86D6"/>
</g>
<g style="mix-blend-mode:multiply" opacity="0.3">
<path fill-rule="evenodd" clip-rule="evenodd" d="M263.952 290.193C264.109 291.791 264.011 293.404 263.66 294.974C263.265 296.383 262.723 297.652 262.453 299.101C261.724 302.87 261.807 306.838 261.224 310.667C260.735 312.762 260.038 314.809 259.142 316.778C258.143 319.555 258.747 322.373 258.247 325.17C257.56 329.039 256.81 333.106 253.667 335.864C253.154 336.42 252.507 336.849 251.782 337.115C251.057 337.381 250.275 337.476 249.503 337.391C247.92 337.232 246.754 336.24 245.11 336.082C243.824 336.174 242.571 336.512 241.425 337.074C239.759 337.51 238.073 337.867 236.386 338.224C235.005 338.508 233.713 339.1 232.618 339.951C231.473 340.704 229.953 340.942 229.37 342.292C228.787 343.641 230.265 344.831 230.994 346.021C232.239 348.442 234.065 350.549 236.324 352.172C236.898 352.617 237.575 352.925 238.3 353.07C239.024 353.215 239.774 353.192 240.488 353.005C241.261 352.741 242.089 352.66 242.902 352.771C243.715 352.882 244.487 353.18 245.151 353.64C247.08 355.273 248.583 357.31 249.544 359.592C249.7 360.138 249.811 360.695 249.877 361.258C249.877 362.409 249.877 361.635 249.211 362.369C248.545 363.103 247.775 363.679 247.587 364.829C247.421 366.797 247.712 368.775 248.441 370.622C248.853 371.781 249.496 372.852 250.336 373.777C251.335 374.809 251.897 375.959 253.021 376.931C255.207 378.915 256.477 381.118 258.934 382.883C261.739 384.931 264.346 387.215 266.721 389.708C271.905 394.807 277.672 398.735 280.378 405.58C281.045 407.266 281.336 410.659 280.025 412.186C279.525 412.782 278.317 413.178 277.672 413.714C276.625 414.729 275.785 415.919 275.194 417.226C274.356 418.977 273.093 420.514 271.509 421.709C269.621 422.481 267.55 422.755 265.513 422.503C264.507 422.334 263.492 422.215 262.473 422.146C261.682 422.146 261.099 422.364 260.225 422.285C257.362 421.668 254.375 421.833 251.606 422.761C250.614 423.193 249.711 423.791 248.941 424.527C247.983 425.38 247.233 426.788 246.172 427.483C244.09 428.872 240.321 426.669 238.552 425.717C235.97 424.308 233.138 422.146 229.974 422.245C228.079 422.245 226.476 423.455 224.581 423.773C222.165 424.151 219.807 424.817 217.565 425.757C216.757 426.237 215.807 426.453 214.859 426.372C211.319 426.034 208.196 423.594 205.469 421.571C202.242 419.17 199.41 416.313 196.183 413.932C192.911 411.516 190.028 408.655 187.626 405.441C185.034 402.551 182.253 399.821 179.298 397.267C177.216 395.164 175.135 393.002 173.053 390.879C171.083 388.59 169.287 386.17 167.681 383.637C166.188 381.849 164.877 379.929 163.767 377.904C162.747 375.454 161.593 373.057 160.311 370.722C158.852 368.425 157.645 365.992 156.709 363.46C155.814 361.06 154.481 356.378 158.125 355.128C160.748 354.255 164.267 355.485 166.911 355.842C171.075 356.398 174.718 354.275 177.82 351.775C180.319 349.791 182.401 347.39 185.107 345.565C186.419 344.652 188.001 343.045 189.688 342.827C191.109 342.755 192.53 342.978 193.851 343.482C196.629 344.512 199.596 344.998 202.575 344.91C205.57 345.017 208.541 344.374 211.194 343.045C212.573 341.937 213.873 340.744 215.088 339.474C216.961 337.808 216.982 334.197 216.462 331.876C215.379 326.975 215.733 321.956 214.38 317.056C213.547 314 209.425 314.238 207.072 312.492C205.542 311.027 204.276 309.331 203.325 307.473C202.053 305.995 200.661 304.615 199.161 303.346C198.061 302.419 197.193 301.269 196.62 299.98C196.047 298.691 195.784 297.297 195.85 295.899C195.916 294.501 196.309 293.135 197.001 291.9C197.693 290.666 198.665 289.594 199.848 288.764C201.243 287.576 202.976 286.808 204.829 286.557C206.681 286.307 208.57 286.585 210.257 287.356C211.798 288.07 213.401 288.705 214.859 289.558C216.588 290.88 218.492 291.981 220.522 292.831C228.995 295.43 237.032 291.978 244.756 289.121C248.407 287.628 252.319 286.8 256.29 286.681C257.09 286.552 257.91 286.598 258.689 286.814C259.468 287.031 260.185 287.413 260.787 287.931C261.95 288.705 263.167 289.401 264.43 290.014C265.846 290.887 266.617 292.316 263.952 290.193Z" fill="#9A86D6"/>
</g>
<path style="mix-blend-mode:soft-light" fill-rule="evenodd" clip-rule="evenodd" d="M313.336 128.619L314.148 128.896C317.832 130.252 321.678 131.165 325.599 131.614C326.558 131.863 327.542 132.016 328.535 132.071C329.222 132.071 329.555 131.713 330.304 131.733C331.907 131.733 333.573 131.733 335.093 131.614C338.042 131.6 340.981 131.947 343.837 132.646C347.272 133.182 351.041 132.17 354.372 133.023C357.703 133.876 361.242 135.82 364.99 136.336L367.592 136.713C369.82 137.07 370.611 138.439 372.881 139.768C373.151 141.336 373.172 144.034 374.338 145.244C374.784 145.681 375.288 146.062 375.837 146.375C377.211 147.274 378.651 148.076 380.147 148.776C383.036 150.083 386.066 151.088 389.183 151.771C391.756 152.115 394.35 152.3 396.948 152.327C402.132 152.624 407.129 152.684 411.647 155.501C414.125 157.068 416.581 158.755 419.121 160.282C420.662 161.141 422.118 162.131 423.473 163.239C424.43 164.092 425.159 165.223 426.034 166.095C427.301 167.004 428.705 167.726 430.197 168.238C431.685 169.147 432.869 170.441 433.612 171.968C434.799 174.091 434.174 176.333 435.028 178.396C435.669 179.509 436.602 180.445 437.734 181.114C442.502 184.784 443.314 190.32 446.645 195.002C449.019 198.414 453.224 200.16 455.931 203.434C458.514 206.767 460.884 210.245 463.03 213.849C464.289 215.842 466.116 217.452 468.298 218.492C470.762 219.944 472.887 221.861 474.544 224.126C476.105 226.467 477.542 228.789 479.353 230.991C480.748 232.737 482.726 233.927 484.058 235.693C485.073 237.444 485.91 239.285 486.557 241.188C488.41 245.156 489.097 249.481 490.721 253.568C492.115 256.921 495.093 260.195 494.697 263.964C494.567 265.09 494.229 266.185 493.698 267.198C493.18 268.981 492.852 270.809 492.719 272.654C492.418 273.601 492.006 274.513 491.491 275.372C491.059 276.631 490.53 277.858 489.909 279.042C488.355 280.621 486.685 282.093 484.912 283.447C484.134 284.328 483.581 285.368 483.296 286.487C483.01 287.605 483.001 288.772 483.267 289.895C483.683 292.335 484.225 294.835 484.808 297.215C485.661 300.905 488.43 304.417 488.68 308.266C488.584 309.651 488.187 311.002 487.514 312.234C486.931 313.762 486.39 315.547 485.974 317.114C485.555 318.778 485.477 320.502 485.745 322.193C485.977 323.353 486.398 324.471 486.994 325.507C487.223 326.003 487.743 326.38 488.014 326.876C488.322 327.808 488.545 328.764 488.68 329.732C488.951 330.705 489.492 332.966 490.429 333.581C492.386 334.891 493.802 330.962 494.968 332.391C495.801 333.383 494.739 335.407 494.697 336.537C494.656 338.143 494.888 339.744 495.384 341.279C496.259 344.195 497.279 345.068 496.009 347.886C494.99 350.105 493.636 352.17 491.991 354.016C489.909 356.357 490.117 358.976 488.951 361.595C488.519 363.047 488.233 364.535 488.097 366.039C487.657 367.367 487.093 368.656 486.411 369.888C485.889 371.022 485.689 372.267 485.828 373.499C486.015 374.252 486.89 374.768 487.327 375.383C487.946 376.556 488.233 377.862 488.16 379.173C488.401 381.155 488.338 383.16 487.972 385.125C500.874 361.723 508.058 335.845 508.985 309.425C509.912 283.005 504.559 256.727 493.326 232.557C482.093 208.386 465.272 186.948 444.119 169.846C422.966 152.744 398.029 140.42 371.173 133.797C366.676 132.686 362.138 131.813 357.495 130.999C356.246 130.761 354.976 130.583 353.727 130.384C340.372 128.385 326.827 127.793 313.336 128.619Z" fill="url(#paint4_radial_2_1453)"/>
<defs>
<radialGradient id="paint0_radial_2_1453" cx="0" cy="0" r="1" gradientUnits="userSpaceOnUse" gradientTransform="translate(320.084 302.343) rotate(-127.465) scale(224.143 225.314)">
<stop stop-color="#3D41FF"/>
<stop offset="0.12" stop-color="#3C40FB"/>
<stop offset="0.25" stop-color="#393DEE"/>
<stop offset="0.37" stop-color="#3438DA"/>
<stop offset="0.5" stop-color="#2D30BD"/>
<stop offset="0.63" stop-color="#242798"/>
<stop offset="0.76" stop-color="#191B6A"/>
<stop offset="0.89" stop-color="#0D0D35"/>
<stop offset="1"/>
</radialGradient>
<radialGradient id="paint1_radial_2_1453" cx="0" cy="0" r="1" gradientUnits="userSpaceOnUse" gradientTransform="translate(324.12 293.594) rotate(-127.465) scale(191.24 192.239)">
<stop stop-color="#8168FF"/>
<stop offset="0.22" stop-color="#8067FC"/>
<stop offset="0.36" stop-color="#7B63F4"/>
<stop offset="0.47" stop-color="#745EE5"/>
<stop offset="0.57" stop-color="#6A55D1"/>
<stop offset="0.66" stop-color="#5C4AB6"/>
<stop offset="0.75" stop-color="#4C3D96"/>
<stop offset="0.83" stop-color="#382D6F"/>
<stop offset="0.91" stop-color="#211B42"/>
<stop offset="0.98" stop-color="#080710"/>
<stop offset="1"/>
</radialGradient>
<radialGradient id="paint2_radial_2_1453" cx="0" cy="0" r="1" gradientUnits="userSpaceOnUse" gradientTransform="translate(374.229 303.488) rotate(-171.784) scale(198.049 189.115)">
<stop stop-color="#895CC2"/>
<stop offset="0.32" stop-color="#865AC0"/>
<stop offset="0.53" stop-color="#7D52BA"/>
<stop offset="0.71" stop-color="#6E45AF"/>
<stop offset="0.87" stop-color="#5934A0"/>
<stop offset="1" stop-color="#432190"/>
</radialGradient>
<linearGradient id="paint3_linear_2_1453" x1="428.578" y1="293.855" x2="429.527" y2="287.281" gradientUnits="userSpaceOnUse">
<stop stop-color="#E8DDFF"/>
<stop offset="1" stop-color="#AA8AD8"/>
</linearGradient>
<radialGradient id="paint4_radial_2_1453" cx="0" cy="0" r="1" gradientUnits="userSpaceOnUse" gradientTransform="translate(458.361 224.698) rotate(-171.784) scale(117.871 112.554)">
<stop stop-color="white"/>
<stop offset="1" stop-color="#8B8DCC"/>
</radialGradient>
</defs>
</svg>
